<svg width="3840" height="2160" viewBox="0 0 3840 2160" fill="none" xmlns="http://www.w3.org/2000/svg">
<path d="M-286 1997.5C-95.6 1322.7 831.046 1680.56 1220 1892C1608.95 2103.44 2473.2 2442.6 3228 2525M-270.5 2279.5C-173.5 1971.5 -40 1823.5 388 1937.5C816 2051.5 1863 2696 1951 2610.5M2841 2302.5C2436 2166.5 1871.5 2062.5 1691 1526.5C1510.5 990.5 2405.39 787.692 2768 1435C3024 1892 3604 2201.17 3870.5 2239.5M3611.5 2302.5C3767 2388 3556 2362.5 3228 2189.5C3033.13 2086.72 2611 1526.5 2368 1398.5C2125 1270.5 1950 1469 2057 1686C2164 1903 2514 1934.5 2869.5 2255.5M2581 1852C2611.5 1824.5 2568.5 1747.5 2464.5 1632C2360.5 1516.5 2287 1512.5 2239.5 1535C2192 1557.5 2175.2 1654.94 2274 1738.5C2368 1818 2550.5 1879.5 2581 1852Z" stroke="black" stroke-opacity="0.2" stroke-width="14"/>
<path d="M-381 1272C-46 1031 685.5 1343.5 1000.5 1527C1315.5 1710.5 1421.5 1719 1487.5 1667.5C1553.5 1616 1464.5 1455 1456 1363.5C1447.5 1272 1390 1083 1562 853.5C1734 624 2069.5 205.5 2806 168.5C3395.2 138.9 3609.17 -29.1667 3642.5 -109.5" stroke="black" stroke-opacity="0.2" stroke-width="14"/>
<path d="M602 1123C1123.5 1418 1212 1556 1269.5 1518.5C1327 1481 1269.5 1378.5 1269.5 1306.5C1269.5 1248.9 1288.83 1110.5 1298.5 1048.5" stroke="black" stroke-opacity="0.2" stroke-width="14"/>
<path d="M3938 -18C3522.5 564 2911.5 369 2659.5 466.5C2407.5 564 2158 619 2201 750.5C2244 882 2444.5 808 2737 1034C3029.5 1260 3015.5 1466.5 3319 1590C3644.18 1722.32 3912 1273.83 4052.5 1034M4052.5 260C3837.5 595.5 2762.5 512.5 2702.5 696C2642.5 879.5 3261.5 1235 3473.5 1189C3685.5 1143 3938.5 904.5 4015.5 827.5M4052.5 541C3766 681.5 3645.5 621.5 3448 713C3261.16 799.561 3399 899.5 3534 899.5C3669 899.5 3795 841.5 3938 796" stroke="black" stroke-opacity="0.2" stroke-width="14"/>
</svg>
